<?xml version="1.0" encoding="UTF-8" standalone="no"?>
<svg
   width="64"
   height="64"
   version="1.1"
   viewBox="0 0 40.573 40.573"
   id="svg6"
   sodipodi:docname="CourseDiscovery.svg"
   inkscape:version="1.2.2 (732a01da63, 2022-12-09)"
   xmlns:inkscape="http://www.inkscape.org/namespaces/inkscape"
   xmlns:sodipodi="http://sodipodi.sourceforge.net/DTD/sodipodi-0.dtd"
   xmlns="http://www.w3.org/2000/svg"
   xmlns:svg="http://www.w3.org/2000/svg">
  <defs
     id="defs10" />
  <sodipodi:namedview
     id="namedview8"
     pagecolor="#ffffff"
     bordercolor="#000000"
     borderopacity="0.25"
     inkscape:showpageshadow="2"
     inkscape:pageopacity="0.0"
     inkscape:pagecheckerboard="0"
     inkscape:deskcolor="#d1d1d1"
     showgrid="false"
     inkscape:zoom="13.078125"
     inkscape:cx="24.468339"
     inkscape:cy="32.038232"
     inkscape:window-width="1920"
     inkscape:window-height="1017"
     inkscape:window-x="1912"
     inkscape:window-y="-8"
     inkscape:window-maximized="1"
     inkscape:current-layer="svg4" />
  <svg
     width="40.573"
     height="40.573"
     enable-background="new 0 0 48 48"
     data-fill-palette-color="accent"
     version="1.1"
     viewBox="0 0 48 48"
     xml:space="preserve"
     id="svg4"><path
       d="m24.825 12.457c0 0.49471-0.32981 0.82452-0.82452 0.82452-2.3087 0-4.1226 1.8139-4.1226 4.1226 0 0.49471-0.32981 0.82452-0.82452 0.82452-0.49471 0-0.82452-0.32981-0.82452-0.82452 0-3.2156 2.556-5.7716 5.7716-5.7716 0.49471 0 0.82452 0.32981 0.82452 0.82452zm18.964 9.0697c0 3.6279-5.2769 6.5962-12.862 7.7505-0.65962 0.98942-0.98942 1.8964-1.1543 2.9683h0.82452v1.649h-0.82452v1.649h0.82452v1.649h-0.82452v1.649c0 0.41226-0.1649 0.82452-0.49471 1.1543-0.32981 0.32981-0.74207 0.49471-1.1543 0.49471h-0.82452v1.649c0 0.41226-0.1649 0.82452-0.49471 1.1543-0.32981 0.32981-0.74207 0.49471-1.1543 0.49471h-3.2981c-0.41226 0-0.82452-0.1649-1.1543-0.49471-0.32981-0.32981-0.49471-0.74207-0.49471-1.1543v-1.649h-0.82452c-0.41226 0-0.82452-0.1649-1.1543-0.49471-0.32981-0.32981-0.49471-0.74207-0.49471-1.1543v-1.649h-0.82452v-1.649h0.82452v-1.649h-0.82452v-1.649h0.82452c-0.08245-1.0719-0.41226-1.9788-1.1543-2.9683-7.5856-1.1543-12.862-4.1226-12.862-7.7505 0-2.4736 2.3911-4.6998 6.7611-6.2663 1.0719-6.2663 6.5137-11.049 13.027-11.049 6.5137 0 11.956 4.7822 13.027 11.049 4.37 1.5666 6.7611 3.7928 6.7611 6.2663zm-8.2452 1.8964c2.1438-0.65962 3.2981-1.4017 3.2981-1.8964 0-0.24736-0.41226-0.82452-1.9788-1.4841-0.32981 1.3192-0.74207 2.3911-1.3192 3.3805zm-23.087-6.019c0 2.7209 1.1543 5.0296 2.3087 6.5962 1.0719 0.24736 2.3087 0.41226 3.7103 0.57716-2.1438-1.649-3.5454-4.205-3.5454-7.1733 0-5.0296 4.0401-9.0697 9.0697-9.0697 5.0296 0 9.0697 4.0401 9.0697 9.0697 0 2.8858-1.4017 5.5243-3.5454 7.1733 1.4017-0.1649 2.6385-0.32981 3.7103-0.57716 1.1543-1.5666 2.3087-3.8752 2.3087-6.5962 0-6.3488-5.1945-11.543-11.543-11.543s-11.543 5.1945-11.543 11.543zm11.543 7.4207c4.1226 0 7.4207-3.2981 7.4207-7.4207s-3.2981-7.4207-7.4207-7.4207c-4.1226 0-7.4207 3.2981-7.4207 7.4207s3.2981 7.4207 7.4207 7.4207zm0 1.649c-2.6385 0-5.1945-0.1649-7.5856-0.49471 0.65962 0.65962 1.1543 1.2368 1.5666 1.7315 1.8964 0.24736 3.8752 0.41226 6.019 0.41226s4.1226-0.1649 6.019-0.41226c0.41226-0.57716 0.98942-1.1543 1.5666-1.7315-2.3911 0.32981-4.9471 0.49471-7.5856 0.49471zm-12.862-6.4312c-1.5666 0.65962-1.9788 1.2368-1.9788 1.4841 0 0.49471 1.1543 1.2368 3.2981 1.8964-0.57716-0.98942-0.98942-2.0613-1.3192-3.3805zm4.2875 7.2558-0.24736-0.24736c-0.32981-0.32981-0.82452-0.90697-1.4017-1.5666-3.7103-0.82452-6.2663-2.1438-6.2663-3.9577 0-1.2368 1.1543-2.3087 3.3805-3.1332-0.08245-0.32981-0.08245-0.65962-0.08245-0.98942v-0.32981c-3.1332 1.2368-4.9471 2.8858-4.9471 4.4524 0 2.2262 3.6279 4.5349 9.5644 5.7716zm10.224 13.192h-3.2981v1.649h3.2981zm2.4736-1.649v0.82452zm0.74207-9.3171c-1.5666 0.1649-3.1332 0.24736-4.8647 0.24736-1.7315 0-3.2981-0.08245-4.8647-0.24736 0.49471 1.0719 0.74207 2.2262 0.74207 3.5454v5.7716h8.2452v-1.649h-6.5962v-1.649h6.5962v-1.649h-6.5962v-1.649h6.5962c0.08245-0.98942 0.32981-1.8139 0.74207-2.7209zm13.275-7.9978c0-1.5666-1.8139-3.2156-4.9471-4.4524v0.32981c0 0.32981 0 0.65962-0.08245 0.98942 2.2262 0.82452 3.3805 1.8964 3.3805 3.1332 0 1.8139-2.556 3.1332-6.2663 3.9577-0.49471 0.65962-0.98942 1.2368-1.4017 1.5666l-0.24736 0.24736c5.9365-1.2368 9.5644-3.5454 9.5644-5.7716zm-31.084 16.243 1.649 1.649 1.1543-1.1543-1.649-1.649zm-3.2981-3.2981 1.649 1.649 1.1543-1.1543-1.649-1.649zm3.2981 0.49471 1.1543 1.1543 1.649-1.649-1.1543-1.1543zm-3.2981 3.2981 1.1543 1.1543 1.649-1.649-1.1543-1.1543zm30.507-3.7928 1.649 1.649 1.1543-1.1543-1.649-1.649zm-3.2981-3.2981 1.649 1.649 1.1543-1.1543-1.649-1.649zm3.2981 0.49471 1.1543 1.1543 1.649-1.649-1.1543-1.1543zm-3.2981 3.2981 1.1543 1.1543 1.649-1.649-1.1543-1.1543z"
       fill="#8DC63F"
       stroke-width=".82452"
       data-fill-palette-color="accent"
       id="path2"
       style="fill:#52a040;fill-opacity:1" /></svg>
</svg>
